<svg aria-hidden="true" style="position: absolute; width: 0; height: 0; overflow: hidden;" version="1.1" xmlns="http://www.w3.org/2000/svg" xmlns:xlink="http://www.w3.org/1999/xlink">
<defs>
<symbol id="icon-water" viewBox="0 0 32 32">
<path d="M23.955 28.421c-1.941 0-3.52-1.579-3.52-3.52 0-0.716 0.214-1.406 0.62-1.995l1.054 0.725c-0.257 0.374-0.394 0.813-0.394 1.269 0 1.235 1.005 2.24 2.24 2.24s2.24-1.005 2.24-2.24c0-0.48-0.15-0.938-0.433-1.323l1.032-0.757c0.445 0.607 0.681 1.326 0.681 2.081 0 1.941-1.579 3.52-3.52 3.52z"></path>
<path d="M26.598 24.379c-0.222 0-0.437-0.115-0.556-0.322l-2.088-3.64-2.087 3.64c-0.176 0.307-0.567 0.413-0.874 0.237s-0.412-0.567-0.237-0.874l2.165-3.775c0.243-0.422 0.619-0.665 1.033-0.665s0.79 0.243 1.033 0.665l2.165 3.776c0.176 0.307 0.070 0.698-0.237 0.874-0.091 0.053-0.201 0.085-0.317 0.085-0 0-0 0-0 0h0zM16.946 2.56c0.177 0 0.32-0.143 0.32-0.32v-0.64c0-0.177-0.143-0.32-0.32-0.32h-8c-0 0-0 0-0 0-0.177 0-0.32 0.143-0.32 0.32 0 0 0 0 0 0v0 0.64c0 0.177 0.143 0.32 0.32 0.32h8zM16.946 3.84h-8c-0.884 0-1.6-0.716-1.6-1.6v-0.64c0-0.884 0.716-1.6 1.6-1.6h8c0.884 0 1.6 0.716 1.6 1.6v0.64c0 0.884-0.716 1.6-1.6 1.6z"></path>
<path d="M10.867 8.229v-5.669h4.16v5.669h-4.16zM13.747 6.949v-3.109h-1.6v3.109h1.6z"></path>
<path d="M8.672 30.667c0.177 0 0.32-0.143 0.32-0.32v-16.302c0-1.414 1.146-2.56 2.56-2.56h8.368c1.414 0 2.56 1.146 2.56 2.56v2.091c0 0.353 0.287 0.64 0.64 0.64h1.952c0.353 0 0.64-0.287 0.64-0.64v-2.155c0-3.181-2.579-5.76-5.76-5.76h-8.432c-3.181 0-5.76 2.579-5.76 5.76v16.366c0 0.177 0.143 0.32 0.32 0.32h2.592zM8.672 31.947h-2.592c-0.884 0-1.6-0.716-1.6-1.6v-16.366c0-3.888 3.152-7.040 7.040-7.040h8.432c3.888 0 7.040 3.152 7.040 7.040v2.155c0 1.060-0.86 1.92-1.92 1.92h-1.952c-1.060 0-1.92-0.86-1.92-1.92v-2.091c0-0.707-0.573-1.28-1.28-1.28h-8.368c-0.707 0-1.28 0.573-1.28 1.28v16.302c0 0.884-0.716 1.6-1.6 1.6z"></path>
</symbol>
<symbol id="icon-refrigerator" viewBox="0 0 32 32">
<path d="M26.263 0h-20.526c-0.352 0-0.637 0.285-0.637 0.637v28.672c0 0.352 0.285 0.637 0.637 0.637h1.296v1.415c0 0.352 0.285 0.637 0.637 0.637h16.659c0.352 0 0.637-0.285 0.637-0.637v-1.415h1.296c0.352 0 0.637-0.285 0.637-0.637v-28.672c0-0.352-0.285-0.637-0.637-0.637zM6.374 28.672v-27.398h8.988v27.398h-8.988zM23.692 30.725h-15.384v-0.778h15.384v0.778zM25.626 28.672h-8.988v-27.398h8.988v27.398z"></path>
<path d="M18.053 17.657c-0.352 0-0.637 0.285-0.637 0.637v0.303c0 0.352 0.285 0.637 0.637 0.637s0.637-0.285 0.637-0.637v-0.303c0-0.352-0.285-0.637-0.637-0.637z"></path>
<path d="M18.053 10.905c-0.352 0-0.637 0.285-0.637 0.637v4.585c0 0.352 0.285 0.637 0.637 0.637s0.637-0.285 0.637-0.637v-4.585c0-0.352-0.285-0.637-0.637-0.637z"></path>
<path d="M13.947 10.905c-0.352 0-0.637 0.285-0.637 0.637v7.056c0 0.352 0.285 0.637 0.637 0.637s0.637-0.285 0.637-0.637v-7.056c0-0.352-0.285-0.637-0.637-0.637z"></path>
</symbol>
<symbol id="icon-microwave" viewBox="0 0 32 32">
<path d="M29.013 4.153h-26.026c-1.647 0-2.987 1.34-2.987 2.987v15.935c0 1.647 1.34 2.987 2.987 2.987h0.009v1.149c0 0.352 0.285 0.637 0.637 0.637h4.143c0.352 0 0.637-0.285 0.637-0.637v-1.149h15.171v1.149c0 0.352 0.285 0.637 0.637 0.637h4.143c0.352 0 0.637-0.285 0.637-0.637v-1.149h0.009c1.647 0 2.987-1.34 2.987-2.987v-15.935c0-1.647-1.34-2.987-2.987-2.987zM7.139 26.573h-2.869v-0.512h2.869v0.512zM27.729 26.573h-2.869v-0.512h2.869v0.512zM30.725 23.074c0 0.944-0.768 1.712-1.712 1.712h-26.026c-0.944 0-1.712-0.768-1.712-1.712v-15.935c0-0.944 0.768-1.712 1.712-1.712h26.026c0.944 0 1.712 0.768 1.712 1.712v15.935z"></path>
<path d="M23.968 6.939h-20.59c-0.352 0-0.637 0.285-0.637 0.637v15.060c0 0.352 0.285 0.637 0.637 0.637h20.59c0.352 0 0.637-0.285 0.637-0.637v-15.060c0-0.352-0.285-0.638-0.637-0.638zM23.331 21.999h-17.219l2.562-2.562c0.249-0.249 0.249-0.653 0-0.902s-0.652-0.249-0.902 0l-3.463 3.463h-0.293v-3.705l4.148-4.148c0.249-0.249 0.249-0.653 0-0.902s-0.652-0.249-0.902 0l-3.246 3.247v-8.278h19.315v13.786z"></path>
<path d="M27.729 7.066c-1.195 0-2.167 0.972-2.167 2.167s0.972 2.167 2.167 2.167 2.167-0.972 2.167-2.167-0.972-2.167-2.167-2.167zM27.729 10.126c-0.492 0-0.892-0.4-0.892-0.892s0.4-0.892 0.892-0.892 0.892 0.4 0.892 0.892-0.4 0.892-0.892 0.892z"></path>
<path d="M27.729 12.676c-1.195 0-2.167 0.972-2.167 2.167s0.972 2.167 2.167 2.167 2.167-0.972 2.167-2.167c0-1.195-0.972-2.167-2.167-2.167zM27.729 15.736c-0.492 0-0.892-0.4-0.892-0.892s0.4-0.892 0.892-0.892 0.892 0.4 0.892 0.892-0.4 0.892-0.892 0.892z"></path>
<path d="M10.554 16.656c-0.249-0.249-0.652-0.249-0.902 0l-0.287 0.287c-0.249 0.249-0.249 0.653 0 0.902 0.125 0.125 0.288 0.187 0.451 0.187s0.326-0.062 0.451-0.187l0.287-0.287c0.249-0.249 0.249-0.653 0-0.902z"></path>
<path d="M29.131 18.604h-2.932c-0.352 0-0.637 0.285-0.637 0.637s0.285 0.637 0.637 0.637h2.932c0.352 0 0.637-0.285 0.637-0.637s-0.285-0.637-0.637-0.637z"></path>
<path d="M29.131 21.027h-2.932c-0.352 0-0.637 0.285-0.637 0.637s0.285 0.637 0.637 0.637h2.932c0.352 0 0.637-0.285 0.637-0.637s-0.285-0.637-0.637-0.637z"></path>
</symbol>
<symbol id="icon-adults" viewBox="0 0 32 32">
<path d="M30 28c0 0 2 0 2-2s-2-8-10-8c-8 0-10 6-10 8s2 2 2 2h16zM14.044 26l-0.044-0.008c0.002-0.528 0.334-2.060 1.52-3.44 1.104-1.294 3.044-2.552 6.48-2.552 3.434 0 5.374 1.26 6.48 2.552 1.186 1.38 1.516 2.914 1.52 3.44l-0.016 0.004-0.028 0.004h-15.912zM22 14c1.061 0 2.078-0.421 2.828-1.172s1.172-1.768 1.172-2.828-0.421-2.078-1.172-2.828c-0.75-0.75-1.768-1.172-2.828-1.172s-2.078 0.421-2.828 1.172c-0.75 0.75-1.172 1.768-1.172 2.828s0.421 2.078 1.172 2.828c0.75 0.75 1.768 1.172 2.828 1.172zM28 10c0 0.788-0.155 1.568-0.457 2.296s-0.743 1.389-1.3 1.947c-0.557 0.557-1.219 0.999-1.947 1.301s-1.508 0.457-2.296 0.457-1.568-0.155-2.296-0.457c-0.728-0.302-1.389-0.744-1.947-1.301s-0.999-1.219-1.3-1.947c-0.302-0.728-0.457-1.508-0.457-2.296 0-1.591 0.632-3.117 1.757-4.243s2.651-1.757 4.243-1.757 3.117 0.632 4.243 1.757c1.125 1.125 1.757 2.651 1.757 4.243zM13.872 18.56c-0.8-0.25-1.625-0.416-2.46-0.494-0.469-0.046-0.941-0.068-1.412-0.066-8 0-10 6-10 8 0 1.333 0.667 2 2 2h8.432c-0.296-0.624-0.444-1.309-0.432-2 0-2.020 0.754-4.084 2.18-5.808 0.486-0.588 1.052-1.138 1.692-1.632zM9.84 20c-1.183 1.779-1.822 3.864-1.84 6h-6c0-0.52 0.328-2.060 1.52-3.448 1.090-1.272 2.984-2.512 6.32-2.55v-0.002zM3 11c0-1.591 0.632-3.117 1.757-4.243s2.651-1.757 4.243-1.757c1.591 0 3.117 0.632 4.243 1.757s1.757 2.651 1.757 4.243c0 1.591-0.632 3.117-1.757 4.243s-2.651 1.757-4.243 1.757c-1.591 0-3.117-0.632-4.243-1.757s-1.757-2.651-1.757-4.243zM9 7c-1.061 0-2.078 0.421-2.828 1.172s-1.172 1.768-1.172 2.828c0 1.061 0.421 2.078 1.172 2.828s1.768 1.172 2.828 1.172c1.061 0 2.078-0.421 2.828-1.172s1.172-1.768 1.172-2.828c0-1.061-0.421-2.078-1.172-2.828s-1.768-1.172-2.828-1.172z"></path>
</symbol>
<symbol id="icon-AC" viewBox="0 0 32 32">
<path d="M25 4c-1.326 0-2.598 0.527-3.536 1.464s-1.464 2.209-1.464 3.536c0 0.265-0.105 0.52-0.293 0.707s-0.442 0.293-0.707 0.293-0.52-0.105-0.707-0.293c-0.188-0.188-0.293-0.442-0.293-0.707 0-1.384 0.411-2.738 1.18-3.889s1.862-2.048 3.142-2.578c1.279-0.53 2.687-0.668 4.044-0.398s2.605 0.937 3.584 1.916c0.979 0.979 1.646 2.226 1.916 3.584s0.132 2.765-0.398 4.044c-0.53 1.279-1.427 2.372-2.578 3.142s-2.504 1.18-3.889 1.18h-24c-0.265 0-0.52-0.105-0.707-0.293s-0.293-0.442-0.293-0.707c0-0.265 0.105-0.52 0.293-0.707s0.442-0.293 0.707-0.293h24c1.326 0 2.598-0.527 3.536-1.464s1.464-2.209 1.464-3.536-0.527-2.598-1.464-3.536c-0.938-0.938-2.209-1.464-3.536-1.464zM11 6c-0.53 0-1.039 0.211-1.414 0.586s-0.586 0.884-0.586 1.414c0 0.265-0.105 0.52-0.293 0.707s-0.442 0.293-0.707 0.293c-0.265 0-0.52-0.105-0.707-0.293s-0.293-0.442-0.293-0.707c0-0.791 0.235-1.564 0.674-2.222s1.064-1.171 1.795-1.473c0.731-0.303 1.535-0.382 2.311-0.228s1.489 0.535 2.048 1.095c0.559 0.559 0.94 1.272 1.095 2.048s0.075 1.58-0.228 2.311c-0.303 0.731-0.815 1.356-1.473 1.795s-1.431 0.674-2.222 0.674h-10c-0.265 0-0.52-0.105-0.707-0.293s-0.293-0.442-0.293-0.707c0-0.265 0.105-0.52 0.293-0.707s0.442-0.293 0.707-0.293h10c0.53 0 1.039-0.211 1.414-0.586s0.586-0.884 0.586-1.414c0-0.53-0.211-1.039-0.586-1.414s-0.884-0.586-1.414-0.586zM0 19c0-0.265 0.105-0.52 0.293-0.707s0.442-0.293 0.707-0.293h20.084c1.187 0 2.347 0.352 3.333 1.011s1.756 1.596 2.21 2.693c0.454 1.096 0.573 2.303 0.341 3.467s-0.803 2.233-1.642 3.072c-0.839 0.839-1.908 1.411-3.072 1.642s-2.37 0.113-3.467-0.341c-1.096-0.454-2.033-1.223-2.693-2.21s-1.011-2.147-1.011-3.333c0-0.265 0.105-0.52 0.293-0.707s0.442-0.293 0.707-0.293c0.265 0 0.52 0.105 0.707 0.293s0.293 0.442 0.293 0.707c0 0.791 0.235 1.564 0.674 2.222s1.064 1.171 1.795 1.473 1.535 0.382 2.311 0.228c0.776-0.154 1.489-0.535 2.048-1.095s0.94-1.272 1.095-2.048c0.154-0.776 0.075-1.58-0.228-2.311s-0.816-1.356-1.473-1.795c-0.658-0.44-1.431-0.674-2.222-0.674h-20.084c-0.265 0-0.52-0.105-0.707-0.293s-0.293-0.442-0.293-0.707z"></path>
</symbol>
<symbol id="icon-alcove" viewBox="0 0 32 32">
<path d="M6.857 2.286v4.571h-4.571v-4.571h4.571zM9.143 29.714v-4.571c0-0.606-0.241-1.188-0.669-1.616s-1.010-0.669-1.616-0.669h-4.571c-0.606 0-1.188 0.241-1.616 0.669s-0.669 1.010-0.669 1.616v4.571c0 0.606 0.241 1.188 0.669 1.616s1.010 0.669 1.616 0.669h4.571c0.606 0 1.188-0.241 1.616-0.669s0.669-1.010 0.669-1.616zM9.143 18.286v-4.571c0-0.606-0.241-1.188-0.669-1.616s-1.010-0.669-1.616-0.669h-4.571c-0.606 0-1.188 0.241-1.616 0.669s-0.669 1.010-0.669 1.616v4.571c0 0.606 0.241 1.188 0.669 1.616s1.010 0.669 1.616 0.669h4.571c0.606 0 1.188-0.241 1.616-0.669s0.669-1.010 0.669-1.616zM9.143 6.857v-4.571c0-0.606-0.241-1.188-0.669-1.616s-1.010-0.669-1.616-0.669h-4.571c-0.606 0-1.188 0.241-1.616 0.669s-0.669 1.010-0.669 1.616v4.571c0 0.606 0.241 1.188 0.669 1.616s1.010 0.669 1.616 0.669h4.571c0.606 0 1.188-0.241 1.616-0.669s0.669-1.010 0.669-1.616zM20.571 29.714v-4.571c0-0.606-0.241-1.188-0.669-1.616s-1.010-0.669-1.616-0.669h-4.571c-0.606 0-1.188 0.241-1.616 0.669s-0.669 1.010-0.669 1.616v4.571c0 0.606 0.241 1.188 0.669 1.616s1.010 0.669 1.616 0.669h4.571c0.606 0 1.188-0.241 1.616-0.669s0.669-1.010 0.669-1.616zM20.571 18.286v-4.571c0-0.606-0.241-1.188-0.669-1.616s-1.010-0.669-1.616-0.669h-4.571c-0.606 0-1.188 0.241-1.616 0.669s-0.669 1.010-0.669 1.616v4.571c0 0.606 0.241 1.188 0.669 1.616s1.010 0.669 1.616 0.669h4.571c0.606 0 1.188-0.241 1.616-0.669s0.669-1.010 0.669-1.616zM20.571 6.857v-4.571c0-0.606-0.241-1.188-0.669-1.616s-1.010-0.669-1.616-0.669h-4.571c-0.606 0-1.188 0.241-1.616 0.669s-0.669 1.010-0.669 1.616v4.571c0 0.606 0.241 1.188 0.669 1.616s1.010 0.669 1.616 0.669h4.571c0.606 0 1.188-0.241 1.616-0.669s0.669-1.010 0.669-1.616zM18.286 2.286v4.571h-4.571v-4.571h4.571zM29.714 2.286v4.571h-4.571v-4.571h4.571zM6.857 13.714v4.571h-4.571v-4.571h4.571zM18.286 13.714v4.571h-4.571v-4.571h4.571zM29.714 13.714h-4.571v4.571h4.571v-4.571zM6.857 25.143v4.571h-4.571v-4.571h4.571zM18.286 25.143v4.571h-4.571v-4.571h4.571zM29.714 25.143v4.571h-4.571v-4.571h4.571zM25.143 0c-0.606 0-1.188 0.241-1.616 0.669s-0.669 1.010-0.669 1.616v4.571c0 0.606 0.241 1.188 0.669 1.616s1.010 0.669 1.616 0.669h4.571c0.606 0 1.188-0.241 1.616-0.669s0.669-1.010 0.669-1.616v-4.571c0-0.606-0.241-1.188-0.669-1.616s-1.010-0.669-1.616-0.669h-4.571zM22.857 13.714c0-0.606 0.241-1.188 0.669-1.616s1.010-0.669 1.616-0.669h4.571c0.606 0 1.188 0.241 1.616 0.669s0.669 1.010 0.669 1.616v4.571c0 0.606-0.241 1.188-0.669 1.616s-1.010 0.669-1.616 0.669h-4.571c-0.606 0-1.188-0.241-1.616-0.669s-0.669-1.010-0.669-1.616v-4.571zM25.143 22.857c-0.606 0-1.188 0.241-1.616 0.669s-0.669 1.010-0.669 1.616v4.571c0 0.606 0.241 1.188 0.669 1.616s1.010 0.669 1.616 0.669h4.571c0.606 0 1.188-0.241 1.616-0.669s0.669-1.010 0.669-1.616v-4.571c0-0.606-0.241-1.188-0.669-1.616s-1.010-0.669-1.616-0.669h-4.571z"></path>
</symbol>
<symbol id="icon-authomatic" viewBox="0 0 32 32">
<path d="M12 7c0-0.796 0.316-1.559 0.879-2.121s1.326-0.879 2.121-0.879h2c0.796 0 1.559 0.316 2.121 0.879s0.879 1.326 0.879 2.121v2c0 0.796-0.316 1.559-0.879 2.121s-1.326 0.879-2.121 0.879v2h11c0.265 0 0.52 0.105 0.707 0.293s0.293 0.442 0.293 0.707v2c0 0.265-0.105 0.52-0.293 0.707s-0.442 0.293-0.707 0.293-0.52-0.105-0.707-0.293c-0.188-0.188-0.293-0.442-0.293-0.707v-1h-10v1c0 0.265-0.105 0.52-0.293 0.707s-0.442 0.293-0.707 0.293c-0.265 0-0.52-0.105-0.707-0.293s-0.293-0.442-0.293-0.707v-1h-10v1c0 0.265-0.105 0.52-0.293 0.707s-0.442 0.293-0.707 0.293c-0.265 0-0.52-0.105-0.707-0.293s-0.293-0.442-0.293-0.707v-2c0-0.265 0.105-0.52 0.293-0.707s0.442-0.293 0.707-0.293h11v-2c-0.796 0-1.559-0.316-2.121-0.879s-0.879-1.326-0.879-2.121v-2zM17 10c0.265 0 0.52-0.105 0.707-0.293s0.293-0.442 0.293-0.707v-2c0-0.265-0.105-0.52-0.293-0.707s-0.442-0.293-0.707-0.293h-2c-0.265 0-0.52 0.105-0.707 0.293s-0.293 0.442-0.293 0.707v2c0 0.265 0.105 0.52 0.293 0.707s0.442 0.293 0.707 0.293h2zM0 23c0-0.796 0.316-1.559 0.879-2.121s1.326-0.879 2.121-0.879h2c0.796 0 1.559 0.316 2.121 0.879s0.879 1.326 0.879 2.121v2c0 0.796-0.316 1.559-0.879 2.121s-1.326 0.879-2.121 0.879h-2c-0.796 0-1.559-0.316-2.121-0.879s-0.879-1.326-0.879-2.121v-2zM3 22c-0.265 0-0.52 0.105-0.707 0.293s-0.293 0.442-0.293 0.707v2c0 0.265 0.105 0.52 0.293 0.707s0.442 0.293 0.707 0.293h2c0.265 0 0.52-0.105 0.707-0.293s0.293-0.442 0.293-0.707v-2c0-0.265-0.105-0.52-0.293-0.707s-0.442-0.293-0.707-0.293h-2zM12 23c0-0.796 0.316-1.559 0.879-2.121s1.326-0.879 2.121-0.879h2c0.796 0 1.559 0.316 2.121 0.879s0.879 1.326 0.879 2.121v2c0 0.796-0.316 1.559-0.879 2.121s-1.326 0.879-2.121 0.879h-2c-0.796 0-1.559-0.316-2.121-0.879s-0.879-1.326-0.879-2.121v-2zM15 22c-0.265 0-0.52 0.105-0.707 0.293s-0.293 0.442-0.293 0.707v2c0 0.265 0.105 0.52 0.293 0.707s0.442 0.293 0.707 0.293h2c0.265 0 0.52-0.105 0.707-0.293s0.293-0.442 0.293-0.707v-2c0-0.265-0.105-0.52-0.293-0.707s-0.442-0.293-0.707-0.293h-2zM24 23c0-0.796 0.316-1.559 0.879-2.121s1.326-0.879 2.121-0.879h2c0.796 0 1.559 0.316 2.121 0.879s0.879 1.326 0.879 2.121v2c0 0.796-0.316 1.559-0.879 2.121s-1.326 0.879-2.121 0.879h-2c-0.796 0-1.559-0.316-2.121-0.879s-0.879-1.326-0.879-2.121v-2zM27 22c-0.265 0-0.52 0.105-0.707 0.293s-0.293 0.442-0.293 0.707v2c0 0.265 0.105 0.52 0.293 0.707s0.442 0.293 0.707 0.293h2c0.265 0 0.52-0.105 0.707-0.293s0.293-0.442 0.293-0.707v-2c0-0.265-0.105-0.52-0.293-0.707s-0.442-0.293-0.707-0.293h-2z"></path>
</symbol>
<symbol id="icon-bathroom" viewBox="0 0 32 32">
<path d="M14.42 1.6c0.96-1.010 1.58-1.6 1.58-1.6 0.219 0.725 0.466 1.417 0.742 2.076 1.624 3.892 4.146 6.7 6.394 9.2 2.62 2.916 4.864 5.414 4.864 8.724 0 3.183-1.264 6.235-3.515 8.485s-5.303 3.515-8.485 3.515c-3.183 0-6.235-1.264-8.485-3.515s-3.515-5.303-3.515-8.485c0-6.664 7.16-14.966 10.42-18.4zM15.246 3.642c-1.285 1.389-2.505 2.837-3.658 4.338-1.452 1.9-2.872 4.016-3.92 6.14-1.060 2.146-1.668 4.156-1.668 5.88 0 2.652 1.054 5.196 2.929 7.071s4.419 2.929 7.071 2.929c2.652 0 5.196-1.054 7.071-2.929s2.929-4.419 2.929-7.071c0-2.402-1.592-4.314-4.362-7.4l-0.060-0.064c-2.078-2.316-4.578-5.094-6.332-8.894z"></path>
</symbol>
<symbol id="icon-fullyintegrated" viewBox="0 0 32 32">
<path d="M0 3.429c0-0.909 0.361-1.781 1.004-2.424s1.515-1.004 2.424-1.004h6.857c0.909 0 1.781 0.361 2.424 1.004s1.004 1.515 1.004 2.424v6.857c0 0.909-0.361 1.781-1.004 2.424s-1.515 1.004-2.424 1.004h-6.857c-0.909 0-1.781-0.361-2.424-1.004s-1.004-1.515-1.004-2.424v-6.857zM3.429 2.286c-0.303 0-0.594 0.12-0.808 0.335s-0.335 0.505-0.335 0.808v6.857c0 0.303 0.12 0.594 0.335 0.808s0.505 0.335 0.808 0.335h6.857c0.303 0 0.594-0.12 0.808-0.335s0.335-0.505 0.335-0.808v-6.857c0-0.303-0.12-0.594-0.335-0.808s-0.505-0.335-0.808-0.335h-6.857zM18.286 3.429c0-0.909 0.361-1.781 1.004-2.424s1.515-1.004 2.424-1.004h6.857c0.909 0 1.781 0.361 2.424 1.004s1.004 1.515 1.004 2.424v6.857c0 0.909-0.361 1.781-1.004 2.424s-1.515 1.004-2.424 1.004h-6.857c-0.909 0-1.781-0.361-2.424-1.004s-1.004-1.515-1.004-2.424v-6.857zM21.714 2.286c-0.303 0-0.594 0.12-0.808 0.335s-0.335 0.505-0.335 0.808v6.857c0 0.303 0.12 0.594 0.335 0.808s0.505 0.335 0.808 0.335h6.857c0.303 0 0.594-0.12 0.808-0.335s0.335-0.505 0.335-0.808v-6.857c0-0.303-0.12-0.594-0.335-0.808s-0.505-0.335-0.808-0.335h-6.857zM0 21.714c0-0.909 0.361-1.781 1.004-2.424s1.515-1.004 2.424-1.004h6.857c0.909 0 1.781 0.361 2.424 1.004s1.004 1.515 1.004 2.424v6.857c0 0.909-0.361 1.781-1.004 2.424s-1.515 1.004-2.424 1.004h-6.857c-0.909 0-1.781-0.361-2.424-1.004s-1.004-1.515-1.004-2.424v-6.857zM3.429 20.571c-0.303 0-0.594 0.12-0.808 0.335s-0.335 0.505-0.335 0.808v6.857c0 0.303 0.12 0.594 0.335 0.808s0.505 0.335 0.808 0.335h6.857c0.303 0 0.594-0.12 0.808-0.335s0.335-0.505 0.335-0.808v-6.857c0-0.303-0.12-0.594-0.335-0.808s-0.505-0.335-0.808-0.335h-6.857zM18.286 21.714c0-0.909 0.361-1.781 1.004-2.424s1.515-1.004 2.424-1.004h6.857c0.909 0 1.781 0.361 2.424 1.004s1.004 1.515 1.004 2.424v6.857c0 0.909-0.361 1.781-1.004 2.424s-1.515 1.004-2.424 1.004h-6.857c-0.909 0-1.781-0.361-2.424-1.004s-1.004-1.515-1.004-2.424v-6.857zM21.714 20.571c-0.303 0-0.594 0.12-0.808 0.335s-0.335 0.505-0.335 0.808v6.857c0 0.303 0.12 0.594 0.335 0.808s0.505 0.335 0.808 0.335h6.857c0.303 0 0.594-0.12 0.808-0.335s0.335-0.505 0.335-0.808v-6.857c0-0.303-0.12-0.594-0.335-0.808s-0.505-0.335-0.808-0.335h-6.857z"></path>
</symbol>
<symbol id="icon-heart" viewBox="0 0 32 32">
<path d="M16 12.472l-1.788-3.578c-0.444-0.886-1.214-2.16-2.304-3.19-1.072-1.014-2.356-1.704-3.908-1.704-3.352 0-6 2.652-6 5.84 0 2.422 1.108 4.132 3.736 6.74 0.674 0.668 1.442 1.39 2.292 2.186 2.216 2.080 4.972 4.668 7.972 8.128 3-3.46 5.756-6.048 7.972-8.128 0.85-0.796 1.62-1.52 2.292-2.186 2.628-2.608 3.736-4.318 3.736-6.74 0-3.188-2.648-5.84-6-5.84-1.554 0-2.836 0.69-3.908 1.704-1.090 1.030-1.86 2.304-2.304 3.19l-1.788 3.578zM16.784 29.056c-0.096 0.114-0.216 0.206-0.352 0.269s-0.283 0.095-0.432 0.095-0.297-0.033-0.432-0.095c-0.135-0.063-0.255-0.155-0.352-0.269-3.202-3.804-6.1-6.524-8.486-8.762-4.13-3.878-6.73-6.316-6.73-10.454 0-4.33 3.58-7.84 8-7.84 3.2 0 5.438 2.1 6.808 4.016 0.52 0.73 0.916 1.432 1.192 1.984 0.346-0.691 0.745-1.354 1.192-1.984 1.37-1.918 3.608-4.016 6.808-4.016 4.42 0 8 3.51 8 7.84 0 4.138-2.6 6.576-6.73 10.454-2.386 2.24-5.284 4.962-8.486 8.762z"></path>
</symbol>
<symbol id="icon-kitchen" viewBox="0 0 32 32">
<path d="M1 12c-0.15 0-0.297 0.034-0.432 0.098s-0.254 0.159-0.347 0.276c-0.094 0.117-0.16 0.253-0.194 0.399s-0.035 0.297-0.003 0.443l3.304 14.868c0.247 1.111 0.865 2.104 1.752 2.816s1.991 1.1 3.128 1.1h11.584c1.138-0 2.241-0.388 3.128-1.1s1.505-1.705 1.752-2.816l0.262-1.18c1.53 0.286 3.111-0.033 4.41-0.891s2.213-2.187 2.551-3.706 0.071-3.11-0.742-4.437c-0.814-1.327-2.111-2.285-3.618-2.674l0.442-1.98c0.032-0.146 0.032-0.298-0.003-0.443s-0.1-0.282-0.194-0.399c-0.094-0.117-0.212-0.211-0.347-0.276s-0.283-0.098-0.432-0.098h-26zM26 25c-0.212 0-0.423-0.017-0.632-0.050l1.734-7.796c0.925 0.268 1.722 0.86 2.246 1.669s0.738 1.778 0.604 2.732c-0.134 0.954-0.607 1.827-1.333 2.46s-1.656 0.983-2.619 0.985zM5.28 27.65l-3.034-13.65h23.508l-3.034 13.65c-0.148 0.666-0.519 1.262-1.051 1.69s-1.195 0.66-1.877 0.66h-11.584c-0.683-0-1.345-0.233-1.877-0.66s-0.903-1.023-1.051-1.69z"></path>
<path d="M8.8 1.6l-0.006 0.008-0.028 0.038c-0.146 0.2-0.282 0.407-0.408 0.62-0.107 0.171-0.202 0.349-0.282 0.534-0.052 0.12-0.068 0.184-0.074 0.206v0.008c0.023 0.177 0.085 0.346 0.182 0.496 0.15 0.266 0.356 0.544 0.616 0.89l0.020 0.024c0.236 0.316 0.52 0.694 0.74 1.086 0.224 0.4 0.44 0.91 0.44 1.49 0 0.376-0.13 0.736-0.238 0.988-0.116 0.268-0.251 0.528-0.404 0.776-0.157 0.262-0.326 0.517-0.506 0.764l-0.036 0.050-0.010 0.016-0.004 0.004c-0.159 0.212-0.396 0.353-0.658 0.391s-0.529-0.030-0.742-0.189c-0.212-0.159-0.353-0.396-0.391-0.658s0.030-0.529 0.189-0.742l0.006-0.008 0.028-0.038c0.146-0.2 0.282-0.407 0.408-0.62 0.107-0.171 0.202-0.349 0.282-0.534 0.052-0.12 0.068-0.184 0.074-0.206-0.021-0.179-0.083-0.352-0.18-0.504-0.186-0.31-0.392-0.608-0.618-0.89l-0.020-0.024c-0.27-0.345-0.517-0.708-0.74-1.086-0.272-0.451-0.424-0.964-0.44-1.49 0-0.376 0.13-0.736 0.238-0.988 0.118-0.276 0.268-0.548 0.404-0.776 0.159-0.261 0.328-0.516 0.506-0.764l0.050-0.070c0.159-0.212 0.396-0.353 0.658-0.391s0.529 0.030 0.742 0.189c0.212 0.159 0.353 0.396 0.391 0.658s-0.030 0.529-0.189 0.742zM14.8 1.6l-0.006 0.008-0.028 0.038c-0.146 0.2-0.282 0.407-0.408 0.62-0.107 0.171-0.202 0.349-0.282 0.534-0.052 0.12-0.068 0.184-0.074 0.206v0.008c0.023 0.177 0.085 0.346 0.182 0.496 0.15 0.266 0.356 0.544 0.616 0.89l0.020 0.024c0.236 0.316 0.52 0.694 0.74 1.086 0.224 0.4 0.44 0.91 0.44 1.49 0 0.376-0.13 0.736-0.238 0.988-0.116 0.268-0.251 0.528-0.404 0.776-0.157 0.262-0.326 0.517-0.506 0.764l-0.036 0.050-0.010 0.016-0.004 0.004c-0.159 0.212-0.396 0.353-0.658 0.391s-0.529-0.030-0.742-0.189c-0.212-0.159-0.353-0.396-0.391-0.658s0.030-0.529 0.189-0.742l0.006-0.008 0.028-0.038c0.146-0.2 0.282-0.407 0.408-0.62 0.107-0.171 0.202-0.349 0.282-0.534 0.052-0.12 0.068-0.184 0.074-0.206-0.021-0.179-0.083-0.352-0.18-0.504-0.186-0.31-0.392-0.608-0.618-0.89l-0.020-0.024c-0.27-0.345-0.517-0.708-0.74-1.086-0.272-0.451-0.424-0.964-0.44-1.49 0-0.376 0.13-0.736 0.238-0.988 0.118-0.276 0.268-0.548 0.404-0.776 0.159-0.261 0.328-0.516 0.506-0.764l0.050-0.070c0.159-0.212 0.396-0.353 0.658-0.391s0.529 0.030 0.742 0.189c0.212 0.159 0.353 0.396 0.391 0.658s-0.030 0.529-0.189 0.742zM20.8 1.6l-0.006 0.008-0.028 0.038c-0.146 0.2-0.282 0.407-0.408 0.62-0.107 0.171-0.202 0.349-0.282 0.534-0.052 0.12-0.068 0.184-0.074 0.206v0.008c0.023 0.177 0.085 0.346 0.182 0.496 0.15 0.266 0.356 0.544 0.616 0.89l0.020 0.024c0.236 0.316 0.52 0.694 0.74 1.086 0.224 0.4 0.44 0.91 0.44 1.49 0 0.376-0.13 0.736-0.238 0.988-0.116 0.268-0.251 0.528-0.404 0.776-0.156 0.262-0.324 0.517-0.504 0.764l-0.038 0.050-0.010 0.016-0.004 0.004c-0.159 0.212-0.396 0.353-0.658 0.391s-0.529-0.030-0.742-0.189c-0.212-0.159-0.353-0.396-0.391-0.658s0.030-0.529 0.189-0.742l0.006-0.008 0.028-0.038c0.146-0.2 0.282-0.407 0.408-0.62 0.107-0.171 0.202-0.349 0.282-0.534 0.052-0.12 0.068-0.184 0.074-0.206-0.021-0.179-0.083-0.352-0.18-0.504-0.186-0.31-0.392-0.608-0.618-0.89l-0.020-0.024c-0.27-0.345-0.517-0.708-0.74-1.086-0.272-0.451-0.424-0.964-0.44-1.49 0-0.376 0.13-0.736 0.238-0.988 0.118-0.276 0.268-0.548 0.404-0.776 0.159-0.261 0.328-0.516 0.506-0.764l0.050-0.070c0.159-0.212 0.396-0.353 0.658-0.391s0.529 0.030 0.742 0.189c0.212 0.159 0.353 0.396 0.391 0.658s-0.030 0.529-0.189 0.742z"></path>
</symbol>
<symbol id="icon-map" viewBox="0 0 32 32">
<path d="M31.634 0.226c0.115 0.094 0.207 0.212 0.27 0.346s0.096 0.28 0.096 0.428v28c-0 0.231-0.080 0.455-0.227 0.634s-0.351 0.301-0.577 0.346l-10 2c-0.129 0.026-0.263 0.026-0.392 0l-9.804-1.96-9.804 1.96c-0.145 0.029-0.295 0.025-0.438-0.010s-0.277-0.103-0.392-0.197c-0.114-0.094-0.207-0.212-0.27-0.345s-0.096-0.28-0.096-0.428v-28c0-0.231 0.080-0.455 0.227-0.634s0.351-0.301 0.577-0.346l10-2c0.129-0.026 0.263-0.026 0.392 0l9.804 1.96 9.804-1.96c0.145-0.029 0.295-0.026 0.438 0.010s0.277 0.103 0.392 0.196zM20 3.82l-8-1.6v25.96l8 1.6v-25.96zM22 29.78l8-1.6v-25.96l-8 1.6v25.96zM10 28.18v-25.96l-8 1.6v25.96l8-1.6z"></path>
</symbol>
<symbol id="icon-gas" viewBox="0 0 32 32">
<path d="M6 5c0-0.265 0.105-0.52 0.293-0.707s0.442-0.293 0.707-0.293h10c0.265 0 0.52 0.105 0.707 0.293s0.293 0.442 0.293 0.707v10c0 0.265-0.105 0.52-0.293 0.707s-0.442 0.293-0.707 0.293h-10c-0.265 0-0.52-0.105-0.707-0.293s-0.293-0.442-0.293-0.707v-10z"></path>
<path d="M2 4c0-1.061 0.421-2.078 1.172-2.828s1.768-1.172 2.828-1.172h12c1.061 0 2.078 0.421 2.828 1.172s1.172 1.768 1.172 2.828v16c1.061 0 2.078 0.421 2.828 1.172s1.172 1.768 1.172 2.828v1c0 0.265 0.105 0.52 0.293 0.707s0.442 0.293 0.707 0.293 0.52-0.105 0.707-0.293c0.188-0.188 0.293-0.442 0.293-0.707v-9h-1c-0.265 0-0.52-0.105-0.707-0.293s-0.293-0.442-0.293-0.707v-6.25c0-0.265 0.105-0.52 0.293-0.707s0.442-0.293 0.707-0.293h2.99c-0.022-0.952-0.106-1.788-0.402-2.444-0.158-0.381-0.435-0.702-0.788-0.916-0.368-0.22-0.928-0.39-1.8-0.39-0.265 0-0.52-0.105-0.707-0.293s-0.293-0.442-0.293-0.707 0.105-0.52 0.293-0.707c0.188-0.188 0.442-0.293 0.707-0.293 1.128-0.003 2.069 0.221 2.824 0.672 0.766 0.456 1.268 1.102 1.588 1.814 0.59 1.31 0.588 2.93 0.588 4.162v6.35c0 0.132-0.025 0.262-0.076 0.383s-0.124 0.232-0.217 0.325c-0.093 0.093-0.203 0.167-0.325 0.217s-0.252 0.076-0.383 0.076h-1v9c0 0.796-0.316 1.559-0.879 2.121s-1.326 0.879-2.121 0.879-1.559-0.316-2.121-0.879c-0.563-0.563-0.879-1.326-0.879-2.121v-1c0-0.53-0.211-1.039-0.586-1.414s-0.884-0.586-1.414-0.586v8h1c0.265 0 0.52 0.105 0.707 0.293s0.293 0.442 0.293 0.707-0.105 0.52-0.293 0.707c-0.188 0.188-0.442 0.293-0.707 0.293h-22c-0.265 0-0.52-0.105-0.707-0.293s-0.293-0.442-0.293-0.707 0.105-0.52 0.293-0.707c0.188-0.188 0.442-0.293 0.707-0.293h1v-26zM20 4c0-0.53-0.211-1.039-0.586-1.414s-0.884-0.586-1.414-0.586h-12c-0.53 0-1.039 0.211-1.414 0.586s-0.586 0.884-0.586 1.414v26h16v-26z"></path>
</symbol>
<symbol id="icon-radio" viewBox="0 0 32 32">
<path d="M14.737 4.421c0-0.279 0.111-0.547 0.308-0.744s0.465-0.308 0.744-0.308h14.737c0.279 0 0.547 0.111 0.744 0.308s0.308 0.465 0.308 0.744v2.105c0 0.279-0.111 0.547-0.308 0.744s-0.465 0.308-0.744 0.308h-14.737c-0.279 0-0.547-0.111-0.744-0.308s-0.308-0.465-0.308-0.744v-2.105zM0 24.421c0-1.675 0.665-3.282 1.85-4.466s2.791-1.85 4.466-1.85 3.282 0.665 4.466 1.85c1.184 1.184 1.85 2.791 1.85 4.466s-0.665 3.282-1.85 4.466c-1.184 1.184-2.791 1.85-4.466 1.85s-3.281-0.665-4.466-1.85c-1.184-1.184-1.85-2.791-1.85-4.466zM14.737 21.263c0-0.279 0.111-0.547 0.308-0.744s0.465-0.308 0.744-0.308h14.737c0.279 0 0.547 0.111 0.744 0.308s0.308 0.465 0.308 0.744v2.105c0 0.279-0.111 0.547-0.308 0.744s-0.465 0.308-0.744 0.308h-14.737c-0.279 0-0.547-0.111-0.744-0.308s-0.308-0.465-0.308-0.744v-2.105zM14.737 10.737c0-0.279 0.111-0.547 0.308-0.744s0.465-0.308 0.744-0.308h10.526c0.279 0 0.547 0.111 0.744 0.308s0.308 0.465 0.308 0.744-0.111 0.547-0.308 0.744c-0.197 0.197-0.465 0.308-0.744 0.308h-10.526c-0.279 0-0.547-0.111-0.744-0.308s-0.308-0.465-0.308-0.744zM14.737 27.579c0-0.279 0.111-0.547 0.308-0.744s0.465-0.308 0.744-0.308h10.526c0.279 0 0.547 0.111 0.744 0.308s0.308 0.465 0.308 0.744-0.111 0.547-0.308 0.744c-0.197 0.198-0.465 0.308-0.744 0.308h-10.526c-0.279 0-0.547-0.111-0.744-0.308s-0.308-0.465-0.308-0.744zM6.316 1.263c-0.829 0-1.651 0.163-2.417 0.481s-1.463 0.783-2.049 1.369c-0.586 0.586-1.052 1.283-1.369 2.049s-0.481 1.588-0.481 2.417c0 0.829 0.163 1.651 0.481 2.417s0.783 1.463 1.369 2.049c0.586 0.586 1.283 1.052 2.049 1.369s1.588 0.481 2.417 0.481c1.675 0 3.282-0.665 4.466-1.85s1.85-2.791 1.85-4.466c0-1.675-0.665-3.282-1.85-4.466s-2.791-1.85-4.466-1.85zM6.316 10.737c-0.838 0-1.641-0.333-2.233-0.925s-0.925-1.395-0.925-2.233c0-0.838 0.333-1.641 0.925-2.233s1.395-0.925 2.233-0.925c0.838 0 1.641 0.333 2.233 0.925s0.925 1.395 0.925 2.233c0 0.838-0.333 1.641-0.925 2.233s-1.395 0.925-2.233 0.925z"></path>
</symbol>
<symbol id="icon-star" viewBox="0 0 32 32">
<path  d="M15.116 2.676c0.375-0.711 1.394-0.711 1.769 0l3.777 7.158c0.145 0.274 0.408 0.466 0.714 0.519l7.975 1.38c0.792 0.137 1.107 1.106 0.547 1.682l-5.641 5.804c-0.216 0.222-0.317 0.532-0.273 0.839l1.152 8.010c0.114 0.796-0.71 1.395-1.431 1.040l-7.263-3.571c-0.278-0.137-0.604-0.137-0.882 0l-7.262 3.571c-0.722 0.355-1.546-0.244-1.431-1.040l1.152-8.010c0.044-0.307-0.057-0.617-0.273-0.839l-5.64-5.804c-0.56-0.577-0.246-1.545 0.547-1.682l7.974-1.38c0.306-0.053 0.569-0.244 0.714-0.519l3.776-7.158z"></path>
</symbol>
<symbol id="icon-TV" viewBox="0 0 32 32">
<path d="M0 7.5c0 0 0-4 4-4h24c0 0 4 0 4 4v12c0 0 0 4-4 4h-8c0 1.333 0.167 2.333 0.5 3h1.5c0.265 0 0.52 0.105 0.707 0.293s0.293 0.442 0.293 0.707c0 0.265-0.105 0.52-0.293 0.707s-0.442 0.293-0.707 0.293h-12c-0.265 0-0.52-0.105-0.707-0.293s-0.293-0.442-0.293-0.707c0-0.265 0.105-0.52 0.293-0.707s0.442-0.293 0.707-0.293h1.5c0.333-0.667 0.5-1.667 0.5-3h-8c0 0-4 0-4-4v-12zM2.796 5.79c-0.22 0.153-0.395 0.361-0.508 0.604-0.168 0.353-0.266 0.735-0.288 1.126v11.98c0 0.65 0.156 1.004 0.29 1.204 0.14 0.208 0.341 0.377 0.604 0.508 0.338 0.162 0.703 0.259 1.076 0.286l0.050 0.002h23.98c0.65 0 1.004-0.156 1.204-0.29 0.22-0.153 0.395-0.361 0.508-0.604 0.162-0.338 0.259-0.703 0.286-1.076l0.002-0.050v-11.98c0-0.65-0.156-1.004-0.29-1.204-0.153-0.22-0.361-0.395-0.604-0.508-0.353-0.168-0.736-0.266-1.126-0.288h-23.98c-0.65 0-1.004 0.156-1.204 0.29z"></path>
</symbol>
<symbol id="icon-van" viewBox="0 0 32 32">
<path d="M12 2h-10v28h10v-28zM30 2h-10v10h10v-10zM30 20v10h-10v-10h10zM0 2c0-0.53 0.211-1.039 0.586-1.414s0.884-0.586 1.414-0.586h10c0.53 0 1.039 0.211 1.414 0.586s0.586 0.884 0.586 1.414v28c0 0.53-0.211 1.039-0.586 1.414s-0.884 0.586-1.414 0.586h-10c-0.53 0-1.039-0.211-1.414-0.586s-0.586-0.884-0.586-1.414v-28zM18 2c0-0.53 0.211-1.039 0.586-1.414s0.884-0.586 1.414-0.586h10c0.53 0 1.039 0.211 1.414 0.586s0.586 0.884 0.586 1.414v10c0 0.53-0.211 1.039-0.586 1.414s-0.884 0.586-1.414 0.586h-10c-0.53 0-1.039-0.211-1.414-0.586s-0.586-0.884-0.586-1.414v-10zM20 18c-0.53 0-1.039 0.211-1.414 0.586s-0.586 0.884-0.586 1.414v10c0 0.53 0.211 1.039 0.586 1.414s0.884 0.586 1.414 0.586h10c0.53 0 1.039-0.211 1.414-0.586s0.586-0.884 0.586-1.414v-10c0-0.53-0.211-1.039-0.586-1.414s-0.884-0.586-1.414-0.586h-10z"></path>
</symbol>
</defs>
</svg>
